PathFileType	4	(X/Y/Z)	SUBJ11_2_walk_RCNL2025.trc
DataRate	CameraRate	NumFrames	NumMarkers	Units	OrigDataRate	OrigDataStartFrame	OrigNumFrames
100	100	9	25	mm	100	240	478
Frame#	Time	R_Shoulder			L_Shoulder			C7			J_Notch			R_Elbow			L_Elbow			R_Wrist			L_Wrist			R_Asis			L_Asis			Sacral			Thoracic			Sternum			R_Thigh_Lateral			R_Knee_Lateral			R_Shank_Lateral			R_Ankle_Lateral			R_Heel			R_Toe			L_Thigh_Lateral			L_Knee_Lateral			L_Shank_Lateral			L_Ankle_Lateral			L_Heel			L_Toe		
		X1	Y1	Z1	X2	Y2	Z2	X3	Y3	Z3	X4	Y4	Z4	X5	Y5	Z5	X6	Y6	Z6	X7	Y7	Z7	X8	Y8	Z8	X9	Y9	Z9	X10	Y10	Z10	X11	Y11	Z11	X12	Y12	Z12	X13	Y13	Z13	X14	Y14	Z14	X15	Y15	Z15	X16	Y16	Z16	X17	Y17	Z17	X18	Y18	Z18	X19	Y19	Z19	X20	Y20	Z20	X21	Y21	Z21	X22	Y22	Z22	X23	Y23	Z23	X24	Y24	Z24	X25	Y25	Z25
240	2.39000000	376.086121	1410.229736	132.015884	376.287506	1402.968628	-265.756409	335.061310	1456.077148	-62.812153	478.368561	1346.826782	-57.286682	341.364044	1079.750488	246.161728	268.160919	1073.126343	-335.580048	493.467438	867.036133	237.716377	248.239349	809.852417	-332.212952	418.909576	934.328857	98.822983	444.991882	924.183899	-197.134491	258.109741	955.473572	-72.974083	251.570358	1277.181274	-66.537506	533.888306	1146.320312	-53.063465	267.956451	606.229431	137.348282	228.102081	458.377838	68.923943	127.517883	271.911804	97.098129	38.069893	93.596275	20.686905	-18.954420	97.383789	-31.714647	165.761765	47.811111	-0.889821	451.143127	584.913269	-259.059387	533.083679	458.772247	-173.669098	584.791199	254.985016	-204.007614	631.167603	68.154327	-134.678040	578.299133	49.586784	-82.610992	766.286621	68.406059	-98.151222
241	2.40000000	388.649963	1410.488281	130.483002	388.186707	1402.219849	-267.383667	347.350311	1456.052612	-64.582153	490.782104	1347.019653	-58.934204	352.326294	1080.063232	244.541245	282.387848	1071.451904	-336.451172	501.168121	864.958527	237.227379	264.029785	808.054718	-332.520569	431.642731	933.846863	98.107689	457.670380	924.427979	-197.882202	270.748444	955.656982	-73.675552	264.142242	1277.032471	-67.639381	547.035889	1146.674316	-54.439686	280.488556	606.186401	137.962112	239.879593	458.600311	70.468773	134.635147	274.779266	98.291328	41.039345	98.342125	21.773260	-15.422635	104.202454	-30.713354	166.934708	47.737782	-0.635611	466.887848	587.324890	-260.091400	547.638855	460.033264	-174.861053	595.505371	255.261047	-204.266663	634.518860	67.085518	-134.559097	580.437805	50.554432	-83.037468	769.461487	62.091133	-96.683037
242	2.41000000	401.219879	1411.322388	128.879349	400.107544	1401.996948	-269.018677	359.653564	1456.531982	-66.414200	503.201538	1347.754761	-60.619656	363.301147	1080.892456	242.668427	296.958801	1070.219238	-337.261414	508.240158	863.039917	236.588432	280.522644	806.670715	-332.732910	444.450348	933.803711	97.312889	470.407745	925.260620	-198.656067	283.470703	956.304199	-74.316689	276.701233	1277.325562	-68.771011	560.249084	1147.626465	-55.865032	293.894684	606.324036	138.654236	252.850922	458.992188	72.197769	142.673569	278.159973	99.564438	44.823383	103.824074	22.879692	-10.782396	111.980057	-29.819002	168.360382	47.596794	-0.427506	482.445007	589.943420	-261.673859	561.614563	461.434265	-176.423508	605.531555	255.590164	-205.036133	637.201477	66.263367	-134.747314	582.104736	51.631145	-83.647652	771.939514	56.848682	-95.986984
243	2.42000000	413.759613	1412.739624	127.208916	412.044861	1402.326416	-270.638641	371.926270	1457.491211	-68.276581	515.602051	1349.014404	-62.319527	374.250519	1082.255371	240.562836	311.836639	1069.479858	-338.016907	514.677139	861.360992	235.799217	297.705078	805.753540	-332.844513	457.308594	934.230042	96.422104	483.178223	926.613464	-199.480057	296.260468	957.377747	-74.914879	289.216431	1278.038940	-69.920898	573.461365	1149.146362	-57.304008	308.206268	606.628723	139.435120	267.124329	459.515625	74.100960	151.788956	282.022034	100.915276	49.572491	110.056007	24.015635	-4.844732	120.730774	-29.025208	170.076126	47.423832	-0.256218	497.605804	592.632324	-263.734802	574.692932	462.788971	-178.283401	614.456421	255.804337	-206.208389	639.283264	65.625740	-135.135651	583.389526	52.686825	-84.304596	773.834839	52.797871	-95.972878
244	2.43000000	426.225952	1414.707764	125.476784	423.995941	1403.200562	-272.230469	384.121277	1458.881836	-70.136787	527.956848	1350.755859	-64.010139	385.123535	1084.131592	238.257523	326.970367	1069.250854	-338.736786	520.495209	859.984497	234.862450	315.553665	805.326172	-332.854355	470.182281	935.123047	95.429611	495.954285	928.395203	-200.363144	309.087677	958.825745	-75.502754	301.663422	1279.133057	-71.081787	586.602661	1151.165771	-58.717937	323.437805	607.055847	140.299896	282.774445	460.107758	76.143364	162.141754	286.292664	102.329773	55.428974	117.021255	25.189278	2.541104	130.423172	-28.307255	172.133331	47.305222	-0.098909	512.005005	595.273743	-266.127075	586.571167	463.953613	-180.340454	621.982117	255.834564	-207.633987	640.841003	65.125549	-135.627289	584.353760	53.627094	-84.925438	775.248962	49.909115	-96.432686
245	2.44000000	438.570709	1417.156616	123.691315	435.962860	1404.574707	-273.791840	396.201508	1460.639160	-71.970604	540.240112	1352.915649	-65.670563	395.859741	1086.463867	235.795837	342.300751	1069.510498	-339.451904	525.735519	858.949066	233.784439	334.035767	805.381409	-332.769272	483.024933	936.443909	94.343872	508.704895	930.514221	-201.299606	321.908844	960.590820	-76.115219	314.025665	1280.554321	-72.252769	599.610168	1153.587769	-60.072201	339.580841	607.540710	141.223007	299.834106	460.691742	78.268219	173.879166	290.871094	103.779579	62.516891	124.684738	26.396868	11.468246	140.982788	-27.636095	174.601395	47.378063	0.081152	525.141663	597.793945	-268.649902	597.031799	464.849915	-182.477600	628.009583	255.688690	-209.152054	641.952881	64.732040	-136.147171	585.044861	54.400555	-85.467575	776.262939	48.031677	-97.128860
246	2.45000000	450.744812	1419.987793	121.866615	447.952484	1406.372192	-275.327118	408.144470	1462.689331	-73.765144	552.429199	1355.412842	-67.283333	406.392120	1089.163940	233.226379	357.767242	1070.201050	-340.201660	530.460419	858.266724	232.575745	353.112167	805.885864	-332.602463	495.788025	938.126160	93.186279	521.396362	932.890869	-202.273560	334.673920	962.615173	-76.774742	326.293762	1282.238770	-73.441978	612.439270	1156.300659	-61.342442	356.594971	608.020081	142.161102	318.285553	461.195953	80.409103	187.109833	295.649170	105.223579	70.933617	133.004456	27.614494	21.961254	152.298019	-26.993425	177.574997	47.825630	0.332650	536.550232	600.143005	-271.082977	605.986328	465.462006	-184.578125	632.625732	255.413773	-210.624054	642.699524	64.422928	-136.646011	585.509644	55.000500	-85.914421	776.950745	46.942913	-97.875084
247	2.46000000	462.704193	1423.085571	120.024345	459.974823	1408.493042	-276.840240	419.939575	1464.952637	-75.517197	564.505798	1358.154663	-68.833755	416.650665	1092.123535	230.597336	373.315430	1071.238037	-341.027069	534.746201	857.925476	231.250000	372.740631	806.785522	-332.371948	508.432251	940.087708	91.987297	533.993408	935.459351	-203.262741	347.335052	964.841492	-77.482635	338.462799	1284.119751	-74.666397	625.067749	1159.192383	-62.517204	374.399597	608.454102	143.062546	338.053467	461.574310	82.505157	201.877960	300.529663	106.614548	80.748528	141.935791	28.794277	33.977348	164.223114	-26.383007	181.188065	48.864674	0.708693	546.027039	602.249329	-273.227173	613.477783	465.818695	-186.544708	636.034668	255.066498	-211.959991	643.165527	64.177177	-137.098099	585.799927	55.453144	-86.269478	777.389099	46.407162	-98.559563
248	2.47000000	474.415710	1426.329712	118.192909	472.038208	1410.828247	-278.330505	431.584045	1467.349487	-77.230598	576.456482	1361.046753	-70.309944	426.567352	1095.226196	227.952347	388.904480	1072.523071	-341.960815	538.673676	857.893280	229.820419	392.878662	808.013916	-332.100433	520.934875	942.243591	90.780518	546.457886	938.163086	-204.242996	359.852417	967.212891	-78.219124	350.529663	1286.136475	-75.947174	637.491516	1162.163940	-63.596165	392.870300	608.840088	143.880081	359.003815	461.823090	84.512764	218.149429	305.435089	107.909760	92.007225	151.421967	29.866816	47.423561	176.575943	-25.836533	185.633514	50.714554	1.253437	553.722717	604.012634	-274.941071	619.656616	465.975006	-188.309372	638.485291	254.695404	-213.123367	643.432495	63.974342	-137.495987	585.968201	55.799046	-86.550034	777.651794	46.218647	-99.128609
